<svg width="55" height="54" viewBox="0 0 55 54" fill="none" xmlns="http://www.w3.org/2000/svg">
<path d="M37.299 17.7309C41.5896 15.1897 43.7377 13.9192 45.3128 14.8216C46.8906 15.7212 46.8519 18.1987 46.7771 23.1537L46.7578 24.4354C46.7356 25.8444 46.7246 26.5475 46.9875 27.1648C47.2505 27.7848 47.7543 28.2471 48.7674 29.1744L49.6865 30.0187C53.2463 33.2796 55.029 34.9073 54.6082 36.7398C54.193 38.5695 51.8539 39.3889 47.1785 41.0249L45.9688 41.4484C44.6401 41.9162 43.9758 42.1488 43.4664 42.6138C42.9571 43.0816 42.6609 43.7294 42.0658 45.0221L41.5232 46.2013C39.4305 50.7577 38.3841 53.0387 36.5516 53.2684C34.7163 53.4954 33.3101 51.5245 30.4949 47.5826L29.7669 46.564C28.9669 45.4429 28.5683 44.8837 27.9897 44.5515C27.4139 44.2221 26.7247 44.1584 25.3434 44.0339L24.0894 43.9176C19.2368 43.4747 16.8091 43.2533 16.095 41.5647C15.378 39.8761 16.8451 37.836 19.7821 33.764L20.5434 32.7094C21.3766 31.5523 21.7946 30.9737 21.9468 30.3011C22.0991 29.6312 21.9717 28.9447 21.7143 27.5717L21.479 26.3232C20.5711 21.4901 20.1171 19.0762 21.5095 17.8029C22.9018 16.5295 25.216 17.2409 29.8444 18.6638L31.043 19.0347C32.3579 19.4389 33.0167 19.6409 33.6866 19.5551C34.3592 19.4721 34.9682 19.1122 36.189 18.3897L37.2962 17.7309H37.299Z" fill="#F4F7FF"/>
<path fill-rule="evenodd" clip-rule="evenodd" d="M21.3683 0.607166C21.7576 0.218378 22.2852 0 22.8354 0C23.3856 0 23.9133 0.218378 24.3025 0.607166L29.8388 6.14347C30.2056 6.53703 30.4052 7.05757 30.3957 7.59543C30.3862 8.13328 30.1683 8.64645 29.788 9.02683C29.4076 9.40721 28.8944 9.6251 28.3566 9.63459C27.8187 9.64408 27.2982 9.44443 26.9046 9.07771L21.3683 3.54141C20.9795 3.15213 20.7611 2.62446 20.7611 2.07429C20.7611 1.52411 20.9795 0.996439 21.3683 0.607166ZM6.14347 4.75939C6.53274 4.3706 7.06042 4.15223 7.61059 4.15223C8.16076 4.15223 8.68844 4.3706 9.07771 4.75939L15.9981 11.6798C16.3648 12.0733 16.5645 12.5939 16.555 13.1317C16.5455 13.6696 16.3276 14.1828 15.9472 14.5631C15.5668 14.9435 15.0537 15.1614 14.5158 15.1709C13.9779 15.1804 13.4574 14.9807 13.0638 14.614L6.14347 7.69363C5.75468 7.30436 5.5363 6.77668 5.5363 6.22651C5.5363 5.67634 5.75468 5.14866 6.14347 4.75939ZM31.0568 10.2957C31.4461 9.9069 31.9738 9.68853 32.5239 9.68853C33.0741 9.68853 33.6018 9.9069 33.9911 10.2957L35.3751 11.6798C35.7419 12.0733 35.9415 12.5939 35.932 13.1317C35.9225 13.6696 35.7046 14.1828 35.3243 14.5631C34.9439 14.9435 34.4307 15.1614 33.8929 15.1709C33.355 15.1804 32.8345 14.9807 32.4409 14.614L31.0568 13.2299C30.668 12.8407 30.4497 12.313 30.4497 11.7628C30.4497 11.2126 30.668 10.685 31.0568 10.2957ZM0.607166 15.832C0.996439 15.4432 1.52411 15.2248 2.07429 15.2248C2.62446 15.2248 3.15213 15.4432 3.54141 15.832L4.92548 17.2161C5.29221 17.6096 5.49185 18.1302 5.48236 18.668C5.47287 19.2059 5.25499 19.7191 4.87461 20.0994C4.49423 20.4798 3.98105 20.6977 3.4432 20.7072C2.90534 20.7167 2.3848 20.517 1.99124 20.1503L0.607166 18.7662C0.218378 18.377 0 17.8493 0 17.2991C0 16.7489 0.218378 16.2213 0.607166 15.832ZM7.52754 22.7524C7.91681 22.3636 8.44449 22.1452 8.99466 22.1452C9.54483 22.1452 10.0725 22.3636 10.4618 22.7524L14.614 26.9046C14.818 27.0947 14.9816 27.3239 15.0951 27.5785C15.2085 27.8332 15.2695 28.1081 15.2745 28.3869C15.2794 28.6656 15.2281 28.9425 15.1237 29.201C15.0193 29.4596 14.8639 29.6944 14.6667 29.8915C14.4696 30.0887 14.2347 30.2441 13.9762 30.3485C13.7177 30.4529 13.4408 30.5042 13.1621 30.4993C12.8833 30.4944 12.6084 30.4334 12.3537 30.3199C12.099 30.2064 11.8698 30.0428 11.6798 29.8388L7.52754 25.6866C7.13875 25.2973 6.92038 24.7697 6.92038 24.2195C6.92038 23.6693 7.13875 23.1416 7.52754 22.7524Z" fill="#F4F7FF"/>
</svg>
